<svg width="37" height="36" viewBox="0 0 37 36" fill="none" xmlns="http://www.w3.org/2000/svg">
<rect x="0.666016" width="36" height="36" rx="18" fill="#bfbfbf"/>
<path d="M14.2217 26.124H10.6498V15.3058H14.2217V26.124Z" fill="#f0f0f0"/>
<path d="M12.4599 10.0896C12.2053 10.0685 11.9492 10.1003 11.7075 10.1831C11.4657 10.2659 11.2434 10.3979 11.0545 10.5709C10.8656 10.7438 10.714 10.9541 10.6092 11.1885C10.5045 11.4229 10.4487 11.6766 10.4455 11.9336C10.4422 12.1907 10.4915 12.4456 10.5904 12.6827C10.6892 12.9197 10.8354 13.1337 11.0199 13.3115C11.2044 13.4892 11.4233 13.6268 11.6629 13.7158C11.9025 13.8048 12.1577 13.8432 12.4126 13.8286H12.4367C12.6925 13.8501 12.95 13.8181 13.1929 13.7347C13.4359 13.6513 13.6591 13.5182 13.8486 13.3438C14.038 13.1695 14.1896 12.9576 14.2939 12.7215C14.3981 12.4853 14.4527 12.2301 14.4543 11.9717C14.4559 11.7133 14.4045 11.4573 14.3031 11.2199C14.2018 10.9825 14.0529 10.7687 13.8656 10.592C13.6783 10.4153 13.4568 10.2794 13.2149 10.193C12.973 10.1065 12.7159 10.0713 12.4599 10.0896Z" fill="#f0f0f0"/>
<path d="M16.1994 26.124H19.7713V20.083C19.7575 19.7859 19.7973 19.4888 19.8888 19.206C20.0225 18.8233 20.2703 18.4916 20.5985 18.2562C20.9266 18.0208 21.3191 17.8932 21.722 17.891C23.0182 17.891 23.5321 18.8826 23.5321 20.3374V26.124H27.104V19.9208C27.104 16.5984 25.3449 15.0513 22.9914 15.0513C22.3441 15.0241 21.7017 15.176 21.1342 15.4905C20.5666 15.8049 20.0956 16.27 19.7722 16.8351V15.3058H16.1994C16.2466 16.3207 16.1994 26.1249 16.1994 26.1249V26.124Z" fill="#f0f0f0"/>
</svg>
